PathFileType	4	(X/Y/Z)	Run_500 01
DataRate	CameraRate	NumFrames	NumMarkers	Units	OrigDataRate	OrigDataStartFrame	OrigNumFrames
120	120	4	42	mm	120	61	128
Frame#	Time	LASI			RASI			LPSI			RPSI			RTH1			RTH2			RTH3			LTH1			LTH2			LTH3			RTB1			RTB2			LTB1			LTB2			LTB3			RCAL			RTOE			RMT5			LCAL			LTOE			LMT5			LACR			RACR			CLAV			C7			RUA1			RUA2			RUA3			RLEL			LUA1			LUA2			LUA3			LLEL			LMEL			RFAsuperior			RFAradius			RFAulna			LFAsuperior			LFAradius			LFAulna			RMEL			RTB3			
		X1	Y1	Z1	X2	Y2	Z2	X3	Y3	Z3	X4	Y4	Z4	X5	Y5	Z5	X6	Y6	Z6	X7	Y7	Z7	X8	Y8	Z8	X9	Y9	Z9	X10	Y10	Z10	X11	Y11	Z11	X12	Y12	Z12	X13	Y13	Z13	X14	Y14	Z14	X15	Y15	Z15	X16	Y16	Z16	X17	Y17	Z17	X18	Y18	Z18	X19	Y19	Z19	X20	Y20	Z20	X21	Y21	Z21	X22	Y22	Z22	X23	Y23	Z23	X24	Y24	Z24	X25	Y25	Z25	X26	Y26	Z26	X27	Y27	Z27	X28	Y28	Z28	X29	Y29	Z29	X30	Y30	Z30	X31	Y31	Z31	X32	Y32	Z32	X33	Y33	Z33	X34	Y34	Z34	X35	Y35	Z35	X36	Y36	Z36	X37	Y37	Z37	X38	Y38	Z38	X39	Y39	Z39	X40	Y40	Z40	X41	Y41	Z41	X42	Y42	Z42	

59	0.675	1136.210097	980.966998	-432.345888	1139.099668	990.763346	-192.143177	972.9820580000001	1030.540946	-358.597288	973.40887	1030.842607	-262.256901	1139.01126	851.3985730000001	-132.928581	1301.555764	800.306429	-158.523319	1315.901108	701.666702	-167.766802	1039.015582	818.334287	-479.062962	1101.002846	706.8377829999999	-465.144382	1005.724753	594.375604	-441.098953	1326.425843	525.392156	-233.138157	1242.846543	535.894645	-179.088667	979.019169	355.728644	-369.930056	888.834718	299.18616	-412.836501	850.364403	211.216486	-342.329393	977.348677	448.924568	-272.652484	1088.185414	268.854873	-267.748851	1048.425953	271.929182	-165.318973	676.188073	160.935539	-334.829743	858.890081	76.39742699999999	-283.307369	839.147662	38.496379	-388.822977	1169.2864	1456.056368	-511.125353	1118.351232	1465.012421	-146.632284	1205.200589	1411.461571	-291.744284	1101.452551	1500.700448	-343.779237	1062.290907	1407.047243	-105.777924	1032.312476	1326.724442	-112.578039	954.624059	1359.549408	-132.137252	873.402197	1282.127127	-102.590501	1153.559449	1372.713445	-562.916693	1093.730173	1310.505503	-551.31684	1161.410582	1272.259214	-587.079533	1117.211285	1162.230883	-625.383911	1074.38483	1144.970745	-564.157604	905.981551	1205.388306	-54.847068	923.811166	1022.640537	-20.064927	861.173272	1019.98594	-49.331375	1193.941278	1191.888755	-597.2383620000001	1309.19419	1261.267853	-466.069878	1342.566344	1203.568249	-480.690007	882.0174500000001	1264.174434	-165.694648	1165.388556	435.80544	-237.90923	
60	0.683333	1140.588374	985.5435660000001	-432.693449	1140.418821	1000.265204	-193.215409	977.556641	1037.39401	-362.467758	975.887346	1038.693043	-265.722484	1141.590854	863.128792	-132.169028	1304.104325	814.771993	-159.511023	1319.505965	715.138483	-169.517814	1039.4487	823.70572	-480.677393	1092.851181	710.367463	-463.368188	989.708798	604.0698149999999	-442.169349	1343.585529	531.780756	-234.171148	1259.062192	532.97691	-179.679061	951.907362	365.536933	-373.612096	860.869571	311.204975	-416.862182	822.354346	222.569185	-347.054439	1005.84128	415.216526	-273.227336	1137.594564	249.830495	-268.56787	1096.249842	247.295197	-166.066302	648.832757	179.809983	-338.739571	819.921604	76.968598	-283.83037	796.692177	39.421228	-389.484894	1172.896801	1467.07015	-508.541694	1113.217674	1473.401384	-146.650893	1203.996769	1421.22179	-288.571225	1100.963335	1508.769398	-343.262563	1056.576888	1417.124496	-106.862435	1026.723187	1336.77515	-113.122816	949.637389	1369.225019	-135.493622	866.91042	1292.569223	-108.630148	1160.109442	1383.101413	-560.71287	1100.596168	1320.964917	-551.684789	1169.671794	1282.483859	-583.14738	1127.06574	1170.877429	-621.041263	1082.016999	1154.49984	-560.795565	898.429322	1216.738031	-58.907461	916.181594	1034.534626	-21.131996	854.741608	1030.448612	-52.655836	1201.671548	1204.976298	-591.970853	1306.697239	1285.748731	-458.718725	1343.965424	1230.504053	-469.510185	877.654389	1274.154865	-171.327395	1193.309056	423.809745	-238.388766	
61	0.691667	1145.721726	989.966129	-431.691248	1141.945727	1010.347176	-193.927012	982.589888	1044.521514	-366.692017	978.571705	1046.582746	-269.800502	1144.128426	875.345677	-131.614248	1305.691138	827.412411	-160.770678	1320.991147	726.666414	-171.246733	1040.008785	829.450753	-482.292478	1084.947564	714.634759	-461.595293	975.6190360000001	614.404764	-444.666921	1359.100385	537.15092	-235.344175	1274.87329	529.072689	-179.791273	926.022676	377.067206	-377.137564	834.67773	324.145941	-421.207566	797.37603	234.260788	-352.184057	1037.416856	382.655607	-273.451899	1187.764219	233.811452	-269.930891	1145.850507	224.887711	-167.696043	625.864603	199.481328	-342.959178	782.535838	78.051247	-285.219818	755.793444	41.763162	-390.87635	1176.293171	1478.063184	-505.838925	1108.413546	1481.624836	-146.906733	1202.781073	1430.989389	-285.400824	1100.730755	1516.931247	-342.706998	1051.315397	1427.03237	-107.875544	1021.514597	1346.649197	-113.734566	945.054426	1379.068386	-138.449949	861.109719	1303.023655	-114.02569	1165.950595	1393.941175	-558.291028	1106.667405	1331.96835	-552.2543460000001	1176.785271	1293.236113	-579.408803	1135.539358	1180.24779	-616.990513	1088.323538	1164.487118	-558.000751	891.7979350000001	1227.837651	-62.933299	909.634846	1046.191721	-22.738171	849.399915	1040.738789	-56.152632	1207.946877	1218.425115	-587.092796	1302.5558	1308.857743	-452.220832	1343.199769	1256.052511	-458.074544	873.397621	1284.552191	-176.603853	1222.218555	412.437525	-238.542611	
62	0.7	1151.218741	993.937141	-429.801902	1143.647447	1020.475812	-194.462769	987.882569	1051.738572	-371.127491	981.273939	1054.503222	-274.242139	1146.616052	888.071582	-131.573928	1306.384344	837.756662	-162.269228	1320.41886	735.904492	-173.083586	1040.388291	835.660241	-484.083151	1077.304298	719.483627	-459.764149	962.973175	625.347618	-447.682675	1373.111124	541.482001	-236.465544	1290.401071	524.259357	-179.395195	902.238343	390.112434	-380.361057	810.878512	337.689247	-425.503844	775.510482	246.131068	-357.211777	1071.534501	351.68422	-273.08471	1238.03556	220.966019	-271.882242	1196.956158	205.081615	-170.277825	607.718418	219.74785	-347.703724	747.7298039999999	80.870924	-287.402652	717.7903690000001	46.421858	-392.700489	1179.475997	1488.667543	-502.890132	1104.039033	1489.414377	-147.279664	1201.48797	1440.264186	-282.355034	1100.681427	1524.794334	-342.155121	1046.463817	1436.484956	-108.845459	1016.613643	1356.065931	-114.498543	940.8077510000001	1388.84336	-141.146443	855.903725	1313.281879	-118.78187	1171.039849	1404.880783	-555.748144	1111.520398	1343.189715	-552.547965	1182.711095	1304.148661	-576.1159730000001	1142.740044	1189.81725	-613.454232	1093.557136	1174.430897	-555.8087389999999	885.811371	1238.528806	-66.808066	904.094039	1057.286678	-24.928533	844.941488	1050.681729	-59.796289	1212.926412	1231.727476	-582.745774	1297.224526	1330.30444	-446.694339	1340.751028	1279.739353	-447.141523	869.283094	1295.113629	-181.398963	1251.620699	401.829194	-238.338352	
